<svg xmlns="http://www.w3.org/2000/svg" id="Capa_1" viewBox="0 0 511.5 511.5"><g><path d="m21.36 401.917-.234-1.701-14.861 2.03 14.985 107.773v1.481h15v-2.519l-2.083-14.981h26.583v-15h-28.67l-2.086-15h43.756v-15h-45.842z"></path><path d="m290.75 64c-14.843 0-22.353 4.721-23.16 5.26l-3.34 2.227v27.013c0 14.612 11.888 26.5 26.5 26.5s26.5-11.888 26.5-26.5v-27.014l-3.34-2.227c-.807-.538-8.317-5.259-23.16-5.259zm11.5 34.5c0 6.341-5.159 11.5-11.5 11.5s-11.5-5.159-11.5-11.5v-18.03c2.468-.726 6.273-1.47 11.5-1.47s9.032.745 11.5 1.47z"></path><path d="m421.75 15c26.602 0 51.371 14.345 64.642 37.438l13.006-7.475c-15.94-27.734-45.693-44.963-77.648-44.963-36.56 0-68.065 22.038-81.943 53.525-9.745-17.022-28.077-28.525-49.057-28.525-31.154 0-56.5 25.346-56.5 56.5v9.308c-9.537-9.745-22.821-15.808-37.5-15.808-28.948 0-52.5 23.551-52.5 52.5v13.723c-7.859-6.975-18.19-11.223-29.5-11.223-24.537 0-44.5 19.962-44.5 44.5v22.634c-7.418-6.312-17.019-10.134-27.5-10.134-23.435 0-42.5 19.065-42.5 42.5v84.126c0 24.483 1.393 49.233 4.138 73.562l14.906-1.683c-2.684-23.772-4.044-47.956-4.044-71.879v-84.126c0-15.164 12.337-27.5 27.5-27.5s27.5 12.336 27.5 27.5v27 46h15v-46-27-55c0-16.266 13.233-29.5 29.5-29.5s29.5 13.234 29.5 29.5v100 4h15v-4-100-47c0-20.678 16.822-37.5 37.5-37.5s37.5 16.822 37.5 37.5v75 51h15v-51-75-46c0-22.883 18.617-41.5 41.5-41.5s41.5 18.617 41.5 41.5v8 145h15v-145c0-41.08 33.421-74.5 74.5-74.5z"></path><path d="m506.211 59.824-14.152 4.972c2.781 7.917 4.191 16.228 4.191 24.705v113.358c0 49.863-3.287 100.219-9.77 149.667-2.946 22.472-5.265 45.328-6.892 67.933l14.961 1.077c1.605-22.314 3.895-44.876 6.804-67.059 6.566-50.092 9.896-101.104 9.896-151.617v-113.36c.001-10.174-1.694-20.158-5.038-29.676z"></path><path d="m476.583 504.142v7.358h15v-7.358c0-22.493.671-45.282 1.995-67.736l-14.975-.883c-1.34 22.746-2.02 45.833-2.02 68.619z"></path><path d="m481.25 98.373c0-32.673-26.177-59.751-58.364-60.362-.38-.006-.758-.01-1.137-.01-32.808 0-59.499 26.691-59.499 59.5v27c0 15.164 12.337 27.5 27.5 27.5h10.616v-15h-10.616c-6.893 0-12.5-5.607-12.5-12.5v-27c0-24.537 19.962-44.5 44.499-44.5.291 0 .583.003.863.008 24.063.457 43.638 20.807 43.638 45.364v26.127c0 6.893-5.607 12.5-12.5 12.5h-38.384v15h38.384c15.163 0 27.5-12.336 27.5-27.5z"></path><path d="m389.75 177h64v15h-64z"></path><path d="m406.75 207h30v15h-30z"></path><path d="m196.75 114c-14.215 0-19.422 4.896-21 7l-1.5 2v19.5c0 12.407 10.094 22.5 22.5 22.5s22.5-10.093 22.5-22.5v-19.5l-1.5-2c-1.578-2.104-6.785-7-21-7zm7.5 28.5c0 4.136-3.364 7.5-7.5 7.5s-7.5-3.364-7.5-7.5v-12.657c1.504-.425 3.897-.843 7.5-.843s5.996.417 7.5.843z"></path><path d="m415.75 305h15v15h-15z"></path><path d="m88.75 449h15v15h-15z"></path></g></svg>